<?xml version="1.0" encoding="utf-8"?>
<!-- Generator: Adobe Illustrator 21.0.2, SVG Export Plug-In . SVG Version: 6.00 Build 0)  -->
<svg version="1.1" id="Layer_1" xmlns="http://www.w3.org/2000/svg" xmlns:xlink="http://www.w3.org/1999/xlink" x="0px" y="0px"
	 width="595.3px" height="841.9px" viewBox="0 0 595.3 841.9" style="enable-background:new 0 0 595.3 841.9;" xml:space="preserve"
	>
<g>
	<path d="M362.1,419.1c-6.7-5.5-13.3-10.9-19.9-16.2c-12-9.6-24.2-19.1-36.2-28.6c-11.2-8.9-22.4-17.8-33.7-26.6
		c-12.2-9.6-24.5-19.2-36.7-28.8c-20.3-15.9-40.6-31.9-60.9-47.9c-13.9-11-27.5-22.3-41.4-33.3c-11.1-8.8-22.5-17.2-33.6-26
		c-9.9-7.9-19.9-15.7-29.2-24.1c-9.2-8.4-10-24.5-2.4-34.2c16.7-21.1,33.4-42.1,50.1-63.2c4.4-5.6,8-11.9,14.8-15.3
		c10.5-5.2,20.8-4.6,30.1,2.5c16.7,12.9,33,26.3,49.5,39.3c16.8,13.3,33.8,26.4,50.6,39.7c16.7,13.2,33.2,26.6,49.8,39.7
		c13.2,10.4,26.5,20.6,39.8,30.9c23.8,18.7,47.6,37.5,71.4,56.3c18.5,14.7,36.8,29.6,55.3,44.2c11.3,8.9,22.9,17.5,34.2,26.4
		c12,9.4,23.8,19,35.8,28.5c5.6,4.5,11.3,8.9,17,13.3c16,12.2,15.8,33.8-0.2,45.9c-13.6,10.3-26.8,21-40.2,31.5
		c-13,10.3-25.9,20.6-38.9,30.9c-12.3,9.7-24.7,19.4-37.1,29.1c-20,15.7-40,31.2-59.9,47c-13.3,10.6-26.2,21.6-39.6,32.2
		c-11.9,9.4-24.3,18.3-36.3,27.7c-11.9,9.3-23.4,19-35.2,28.4c-13.5,10.8-27.2,21.4-40.8,32.2c-10,7.9-20.1,15.8-30.1,23.7
		c-10.6,8.4-21.2,16.9-31.8,25.3c-5.1,4-10.5,7.8-15.6,11.9c-8.8,7-26.3,5.1-33.1-2.8c-6.7-7.9-13.1-16.1-19.6-24.3
		c-9.7-12.2-19.7-24.1-29.1-36.6c-5.5-7.3-12.7-13.5-15.1-23.2c-2.6-10.8,1.8-21.9,10.6-28.7c8.9-6.9,17.7-14,26.6-21
		c10.3-8.1,20.6-16.1,30.8-24.2c12.2-9.6,24.4-19.3,36.6-28.9c11.8-9.4,23.6-18.7,35.5-28.1c11.8-9.3,23.6-18.5,35.4-27.8
		c12-9.4,24-18.8,35.9-28.3c7.4-5.9,14.6-12.2,22-18.2c8.3-6.6,16.8-12.9,25.1-19.5c12.5-9.8,25-19.7,37.4-29.5
		C360.3,420.2,361,419.9,362.1,419.1z M145.5,742.6C282.3,634.5,418.4,527,555.2,418.9c-137-108.2-273.1-215.8-409.5-323.6
		c-3.8,4.8-7.2,9.2-10.7,13.6c-6.9,8.5-13.9,17-20.7,25.5c-8.3,10.4-16.3,20.9-24.6,31.3c-2.2,2.7-2.1,4.7,0.5,6.7
		c7.3,5.9,14.6,11.7,21.9,17.5c11.9,9.5,23.9,18.9,35.9,28.3c11.8,9.3,23.6,18.5,35.4,27.8c11.9,9.4,23.7,18.9,35.6,28.3
		c12.1,9.6,24.3,19.2,36.5,28.8c11.6,9.1,23.1,18.3,34.7,27.4c12.1,9.5,24.2,19,36.3,28.6c11.8,9.4,23.6,18.8,35.4,28.1
		c8.7,6.9,17,14.6,26.4,20.5c6.8,4.3,8.5,16.3,0.7,22c-13.7,10.1-27,20.8-40.3,31.3c-16.9,13.4-33.6,27-50.5,40.4
		c-18,14.3-36.3,28.2-54.4,42.5c-14.9,11.8-29.5,24-44.5,35.9c-14,11.1-28.3,22-42.5,33c-12.3,9.6-24.5,19.1-36.7,28.8
		c-10,7.9-20,15.9-29.9,24c-2.3,1.9-2.7,3.9-0.5,6.3c3.5,3.9,6.9,8,10.1,12.1C114.7,703.3,129.8,722.7,145.5,742.6z"/>
</g>
</svg>
