<?xml version="1.0" encoding="utf-8"?>
<!-- Generator: Adobe Illustrator 21.0.2, SVG Export Plug-In . SVG Version: 6.00 Build 0)  -->
<svg version="1.1" id="Layer_1" xmlns="http://www.w3.org/2000/svg" xmlns:xlink="http://www.w3.org/1999/xlink" x="0px" y="0px"
	 width="595.3px" height="841.9px" viewBox="0 0 595.3 841.9" style="enable-background:new 0 0 595.3 841.9;" xml:space="preserve"
	>
<style type="text/css">
	.st0{fill:#FDFDFD;}
	.st1{fill:#DBD9DA;}
	.st2{fill:#DCDADB;}
	.st3{fill:#DDDBDC;}
	.st4{fill:#DCDBDC;}
	.st5{fill:#DDDCDD;}
	.st6{fill:#DBDADB;}
	.st7{fill:#DFDEDF;}
	.st8{fill:#EEEDEE;}
	.st9{fill:#DEDDDE;}
	.st10{fill:#ECEBEC;}
	.st11{fill:#DFDDDE;}
	.st12{fill:#E0DFE0;}
	.st13{fill:#E1E0E0;}
	.st14{fill:#E9E7E8;}
	.st15{fill:#E0DEDF;}
	.st16{fill:#E1E0E1;}
	.st17{fill:#DEDCDD;}
	.st18{fill:#E6E5E5;}
	.st19{fill:#F2F1F1;}
	.st20{fill:#F1F0F1;}
	.st21{fill:#EDECED;}
	.st22{fill:#E9E8E9;}
</style>
<g>
	<g>
		<path class="st0" d="M460.9,404.6c0,78.8,0,157.5,0.1,236.3c0,1.6-0.4,1.9-1.9,1.9c-110.8-0.1-221.8-0.1-332.6,0
			c-1.6,0-1.9-0.4-1.9-1.9c0.1-157.5,0.1-315.1,0-472.6c0-1.6,0.4-1.9,1.9-1.9c110.8,0.1,221.8,0.1,332.6,0c1.6,0,1.9,0.4,1.9,1.9
			C460.9,247.1,460.9,325.9,460.9,404.6z"/>
		<path class="st1" d="M233.4,527.2c1.4,2.3,3.6,3.3,6.2,3.4c1.8,0.1,2.9,1.8,3.4,2.7c0.8,1.4,2.1,0.9,2.4,0.8
			c1.1-0.6,1.4,0.1,1.7,0.7c0.5,1.1,2.1,1.7,1.4,3.3c-0.1,0.1,1,0.9,1.9,1c0-1.5-1.6-2.4-1.2-4.3c1.2,1.8,3.3,2.3,4.1,4.1
			c0.4,0.7,0.6,2.1,1.9,0.9c0.4-0.4,0.8,0.3,1.2,0.6c2.1,1.4,3.9,3.4,6.4,4.4c0.6,0.3,1.3,0.8,2.1,0.6c0.3-0.1,0.6,0.1,0.8,0.6
			c0.6,1.9,1.2,2.3,3,1.4c0.2-0.1,0.4-0.1,0.8-0.2c0,0.6-1.2,1.2-0.3,1.8c2.2,1.3,3.1,3.8,5.1,5.3c1.8,1.5,3.1,3.6,5.8,3.6
			c1,0,1.2,0.9,0.7,1.8c3,1.8,6.9,1.8,9.6,4.4c0.4,0.4,1.1,0.9,0.9,1.4c-0.9,2.5,1.6,3.2,2.4,4.8c0.9,1.5,1.2,3.8-0.2,4.7
			c-1.2,0.7-2,1.6-3,2.5c-0.4,0.3-1.1,1.1-0.8-0.5c0.1-0.6-1.1-1.5-1.7-2.2c-0.6,0.9-1.3-0.7-1.9,0.3c-0.6,1.1,0.6,1.4,0.6,2.4
			c-0.8-0.7-1.6-0.6-2.3-0.2c-0.6,0.4-1.6,0.1-2.1-0.6c-0.6-0.6,0.7-0.6,0.6-1.5c-1.1,0.6-1.6-0.6-2.3-0.9c-1.4-0.6-2.5-2.1-4.3-1.3
			c-0.5,0.2-0.9-0.5-1.3-0.9c-1.2-1.7-1.8-1.7-3.3-0.4c-0.7,0.6-1,1.4-1.6,2c-1.8-0.4-0.2-2.6-1.8-2.9c0.5-0.8,1.2-0.4,1.8-0.6
			c-2.3-2.6-2.3-2.6-4.4-0.3c-0.4-0.7-0.7-1.4-0.9-2.1c-0.2-0.6-0.6-0.6-0.9-0.5c-1.8,0.9-2.7-0.4-3.9-1.3c-1-0.8-1.9-2.6-4.1-1.2
			c3.2-1.5,0.6-3.7,1-5.5c0.1-0.4-0.2-0.9-0.6-0.9c-1.2,0.1-1.8-0.6-2.5-1.6c-0.6-0.7-1.2-0.8-1.6,0.2c-0.3,0.9-1.6,1.4-1.2,2.6
			c0.1,0.4-0.4,0.6-0.6,0.6c-0.4-0.1-0.9-0.4-1-0.6c-0.2-0.6,0.5-0.2,0.6-0.4c0.5-0.3,0.3-0.6,0-0.8c-1.2-1.1-2.5-2.1-3.8-3.1
			c-0.4-0.3-1.1-0.4-1.6-0.4c-0.6,0-1.2,0.4-1.6-0.1c-0.7-0.8,0.9-0.5,0.6-0.6c-0.8-0.5-0.9-1.8-2.1-1.8c-0.6,0.1-0.9-0.4-0.8-0.9
			c0.6-1.5-0.9-1.4-1.6-1.8c-0.6-0.6-0.8,0.6-1.1,0.8c-0.6,0.6-1.2,0.6-1.2-0.3c0-1.4-0.8-0.6-1.2-0.8c-2.5-1.2-6.2-0.6-7.4-4.1
			c-0.2-0.6-0.6-1.4-1.8-0.8c-1.3,0.6-2.8-0.6-4.1-1.2c-1.2-0.6-2.9-0.5-3-2.6c-0.1-1.1-1.7-1-2.6-1.4c-2-0.8-2.9-2.3-3.3-4.1
			c-0.2-0.9-0.3-1.7-1.4-0.8c-0.6,0.4-0.9,0.2-1.2-0.3c-0.8-0.9-1.5-1.7-2.9-2c-0.8-0.2-0.9-0.6-0.8,0.4c0.1,0.6-0.2,0.8-0.6,0.9
			c-0.4,0.1-0.8-0.2-0.7-0.6c0.6-2.5-1.8-3.1-2.8-4.6c-0.9-1.4-2.1-2.4-1.9-4.3c0.1-1.4-1.6-2.6-2.9-2.3c-0.8,0.1-0.6-0.9-1.2-0.8
			s-0.4,0.6-0.6,0.9c-0.9-1.8-2.3-3.5-2.6-5.7c-0.1-0.6-1-1.1-1.6-1.2c-3.8-0.6-6.4-2.9-8.7-5.6c-0.6-0.6-1.3-0.5-1.8-1.2
			c0.6-0.4,1.8-0.2,1.8-1.2c-0.1-0.9-1-0.6-1.6-0.8c-1.3-0.8-1.8-2.3-2.5-3.5s-1.4-1.9-2.5-2.8c-1.8-1.2-3.8-2.4-4.1-4.9
			c-0.1-1.2-1.4-1.6-2.1-2.7c1.8,0.2,2.6-0.4,2.1-1.9c-0.4-1.6-1.7-2.2-3.3-1.7c-0.1,0.2-0.3,0.2-0.4,0c-0.1-0.6-0.1-1.2-0.1-1.8
			c-0.6-0.2-0.6,0.2-0.8,0.6c-0.2,0.6-0.9,1.2-1.2,0.7c-0.4-0.6-1.1-1.1-1.1-1.8c-0.1-0.6,0.7-0.9,1.2-0.8c1.4,0.4,0.9-0.4,0.8-1.1
			c-0.2-1,1-2.9-0.6-2.9c-1.2-0.1-1.1-0.9-1.6-1.3c-0.3-0.2-0.2-0.7-0.4-1.1l0,0c0.9-0.1,1.8,0.1,2.4,0.9c1.2,2,3.4,3.3,4.8,5.3
			c1.1,1.6,3.1,1.8,4.8,2.6c0.4,0.2,0.9,0.1,1-0.6c0.2-1.8,1.6-1.8,2.6-1.1c1.8,1.1,3.7,1.6,5.6,2.3c1.6,0.6,2.9,1.7,3.7,3
			c1.2,2.3,3.3,3.2,5.2,4.1c2.7,1.2,4.1,3.5,5.8,5.4c0.6,0.6,5,3.6,5.9,4c1.1,0.5,1.9,1.3,3,1.8c2.1,1.1,4.4,1.4,6.8,1.8
			c1.6,0.2,3,0.6,2.5,2.9c-0.4,1.6,2.6,4.3,4.3,4.2c1.8-0.1,2.6,0.4,1.9,2.4c-0.7,2.7,1.7,5.7,4.8,6.1c1.8,0.2,2.9,1.5,4.1,2.5
			c0.6,0.4-0.1,0.6-0.6,0.7c-0.2-0.1-0.4-0.2-0.6,0.1C233.2,526.9,233.3,527.1,233.4,527.2z"/>
		<path class="st1" d="M297.4,258.5c-1.2,0.6-1.3,1.2-0.7,2.4c0.8,1.8,0.3,3.9,1.6,5.5c0.2,0.3,0.2,0.6,0.6,0.7
			c0.6,0.1,1.2-1.2,1.5-0.1c0.4,1.5,1.4,2.9,0.8,4.4c-0.3,0.7-0.4,0.9,0.4,1.4c1.3,0.9,1.2,1,0.4,2.4c-0.4,0.6,0.5,1.2,0.6,1.9
			c0.1,1.8,1.1,3.4,2.1,4.9c0.2,0.3,0.8,0.3,0.5,0.8c-0.2,0.4-0.6,0.4-0.9,0.2c-2.1-1-3.1,0.3-4.2,1.8c-1,1.5-2.2,2.3-4.1,1
			c-1-0.7-2.3-0.2-3.4-0.1c-0.8,0-2.7-0.4-2.5,1.7c-1.5-0.2-2.1,0.7-2.9,1.8c-0.6,0.7-2.6-0.7-2.4-1.8c0.1-0.8,0.2-1.6-0.6-2.1
			c-2.2-1.8-2.8-4.6-4.3-6.8c-0.5-0.6-0.6-1.2-0.4-1.9c0.9-2.7,0.8-5.2-0.1-7.9c-0.8-2.4-1.6-4.9-1.8-7.5c-0.2-1.8-1.6-3.2-2.1-5
			c-0.9-3.1-0.6-6.2,0.6-9.1c0.6-1.4,1.8-1.4,2.6-0.1c1.1,1.7,1.8,3.8,3.3,5c2.5,2,2.9,4.6,3.1,7.4c0.2,2.4,1.2,4.6,1.4,7.1
			c0.1,0.8,0.6,1.6,1.5,1.6c1.5-0.1,2.9,0.6,4.3-0.6c2.1-1.8,1.2-4.3,1.5-6.5c0.4-2.7,0.1-2.8,2.8-2.4
			C296.4,258.5,296.9,258.5,297.4,258.5z"/>
		<path class="st1" d="M315.3,309.4c-0.1,0.4-0.4,0.8-0.2,0.9c2,1.6,4,3.5,6.1,4.6c1.9,1,2.9,3.5,5.4,3.7c0.6,0.1,1.1,2.1,0.5,3.4
			c-0.2,0.4-0.6,0.6-0.3,1.4c0.4-0.4,0.6-0.8,0.9-1.1c0.5-0.5,0.9-0.4,1.2,0.2c0.3,0.6,0.4,1.4-0.2,1.4c-1.8,0.1-1.2,3.8-3.4,2.6
			c-1.7-0.9-3.4-1.1-5.2-1.6c-0.7-0.2-1.3,0.2-1.4,0.6c-0.1,1.4-1.6,1.7-2.2,2.6c-0.8,1.2-2.3,0.3-2.9-0.3c-0.8-0.8-3.6-1.2-1.2-3.4
			c0.6-0.5-0.1-1.2-0.6-1.7c-0.6-0.6-0.6-1.3-1-1.9c-1.1-1.9-0.9-4.1-0.6-6c0.4-2.5-1.4-4.1-2.4-6c-0.6-0.9-1.4-0.1-1.7,0.3
			c-1.4,1.9-3.1,1.3-4.3,0.2c-1.1-1-2.6-2.5-1.1-4.4c0.6-0.9,0.7-1.9,0.6-3.1c-0.5-2.7,1-3.9,3.5-2.9c1.3,0.6,2.9,0.8,3.1,2.7
			c0.1,0.6,0.6,1.1,1.2,1.4c0.4,0.2,0.6,0.5,0.8,0.8c0.3,0.3,0.8,0.7,0.7,0.9c-1,2.9,1.6,3.6,3,5
			C314.5,309.4,314.8,308.9,315.3,309.4z"/>
		<path class="st1" d="M298.2,505.7c1.2,0.6,2.1,0.2,2.9-1.2c0.6-0.9,1.8-0.6,2.7,0.1c1.2,0.9,3.3,1.5,1.9,3.9
			c-0.5,0.8-0.5,1.8,0.1,2.9c0.2,0.3,0.4,0.8,0.3,0.9c-2.3,3.1,1.4,2.3,2.3,2.9c1,0.7,2.3,0.7,1.8,2.6c-0.2,0.9,0.8,1.2,1.7,1.6
			c0.9,0.4,2.1,0.9,0.5,2.1c-0.6,0.5-1.2,1.1-0.8,2.1c0.4,0.9-0.1,1.6-0.9,1.8c-0.8,0.3-1.9,0.9-2.7-0.2c-1.6-2.6-3.9-3.7-6.8-3.7
			c-1.7,0-2.6-1-3.2-2.2c-0.6-1-2-1.6-1.6-3.1c0.1-0.1-0.4-0.5-0.6-0.6c-0.6-0.2-1.5-0.3-1-1.1c0.3-0.6,0.9-0.2,1.5,0.1
			c1.4,0.8,2.3-0.6,3.2-1.1c0.4-0.2,0.6-0.6,0.6-1c0.6-0.9,1.9-1.8,1.2-2.9c-0.9-1.1-2.6-1.6-4.1-1.7c-0.6-0.1-1.7,1.1-1.8-0.2
			c-0.1-1,0.6-2,1.9-1.8C297.6,505.8,297.8,505.7,298.2,505.7z"/>
		<path class="st1" d="M348.7,369.6c-0.6,0.2-1.3,0.3-2,0.5c0.8-1.6,1.8-1.9,3-1.2c1.4,0.8,2.6,1,4.2,0.6c2.4-0.7,3.1,1.8,4.1,3.3
			c0.9,1.4,1.7,2.9,3.4,3.1c0.6,0.1,0.6,0.5,0.4,0.9c-1.1,3.8-4.1,5.8-8.1,5.1c-1.2-0.3-2-1.8-3.7-1.8c-0.6,0-1.4,0.4-1.8-0.1
			c-0.6-1.5,2.4-0.1,1.2-2.1c-1.2-2.3-2-2.4-3.9-0.6c-0.4,0.4-0.5,1.3-1.2,0.7c-0.4-0.3-0.8-1-0.6-1.6c0.4-0.8,0.6-2,1.5-2.5
			C347,373,347.2,370.8,348.7,369.6z"/>
		<path class="st1" d="M391.2,422.3c-1.2,0.4-2.7,0-2.9,1.1c-0.1,0.9,1.2,1.6,2.2,1.9c1.4,0.6,2.5,1.5,3.1,2.9
			c0.6,1.1,0.2,1.9-0.6,2.7c-0.6,0.6-1.5,1.4-2.4,0.7c-2.3-1.7-5.2-1.7-7.6-2.9c-1.1-0.6-2.1-0.9-3.2-1.5c-0.9-0.6-1.5-1.2-0.6-2.1
			c0.4-0.5,0.8-0.9,0.4-1.5c-1.4-1.6-0.6-3.3-0.4-4.9c0.2-1.8,1.6-2.7,3.4-2.7c2.5-0.1,3.7,0.6,4,2.5c0.2,1.8,0.6,3,2.9,2.3
			C390.7,420.6,390.8,421.6,391.2,422.3z"/>
		<path class="st1" d="M330.1,543.4c1.4-1.1,1.6-2.1,0.4-3.1c-0.6-0.6-0.8-1.4-0.8-2.3c0.1-0.9-0.2-1.8-0.9-2.4
			c-0.4-0.4-0.7-0.7-0.4-1.2s1-0.6,1.4-0.2c1.2,1.1,2.3,0.9,3.6,0c0.6-0.5,1.4-0.8,1.6,0.8c0.3,2.4,2.7,3.3,5.6,2.2
			c1.7-0.6,1.6-0.4,1.3,1.2c-0.2,1.8-1.1,3.6-0.4,5.4c0.1,0.4,0.1,0.8-0.3,0.9c-1.8,0.4-3.3,1.8-5.3,1.3c-0.4-0.1-0.8-0.3-1.1-0.6
			C333,543.6,333,543.6,330.1,543.4z"/>
		<path class="st1" d="M345.4,319c-2.6,1-5.3-0.1-8-1.2c-1.6-0.6-2.6-1.9-4-2.7c-0.6-0.3-0.6-1.7,0.1-1.7c1.2-0.2,2.1-1.1,3.3-1
			c2.4,0.2,3.9-1.3,5.1-3c0.4-0.6,0.6-1.2,1.6-1.1c1,0.1,1.1,0.8,1.4,1.7c0.2,0.8,0.6,1.7,0.8,2.6c0.3,1.2,0.8,2.1,2.1,2.6
			c0.5,0.1,0.8,0.6,1.2,0.8c0.7,0.5,1.1,1,0.9,1.9c-0.2,0.9-0.9,1.2-1.7,1.4C347.4,319.1,346.6,319,345.4,319z"/>
		<path class="st1" d="M394.6,446.7c-0.2,1-0.4,1.8-0.3,2.8c0.2,1.8,0.7,3,2.9,3.2c1.4,0.1,2.1,1.7,3.6,1.9c0.6,0.1,0.2,0.8-0.2,0.9
			c-1.1,0.6-1.1,1.5-1.1,2.5c-0.1,1.8-1,2.5-2.7,1.9c-4-1.3-6.4-4.2-7.6-8c-0.8-2.6,2.3-6.2,4.7-5.9
			C394.6,446.2,394.6,446.2,394.6,446.7z"/>
		<path class="st1" d="M343.6,280.5c-0.1,1.1-0.3,2.3,1.1,2.9c0.4,0.2,0.6,1.2,0.5,1.8c-1.1,3,1,5.3,1.6,8c0.6,2.9,1.9,5.5,1.5,8.7
			c-0.3,1.8-1.5,2.7-2.7,1.9c-0.4-0.2-0.8-0.6-0.8-0.9c0.7-2.5-1.4-4.6-0.8-7.1c0.1-0.5-0.4-1-0.6-1.6c-1.1-2.2-2.1-4.3-1.5-6.9
			c0.6-2,1.2-4.1,0.9-6.3C342.7,280.6,343.1,280.5,343.6,280.5z"/>
		<path class="st1" d="M357.1,338.9c0,0.6-0.6,0.9-1.6,0.4c-0.2-0.1-0.4-0.2-0.6-0.3c-2.4-1.5-4.7-2.3-7.4-0.4
			c-1.6,1-3.9-0.6-4.3-2.7c-0.3-1.4-1.7-2.3-0.9-4.1c0.6-1,1.8-1.8,1.3-3.4c-0.1-0.4,1.2-0.7,1.8,0.1c0.4,0.6,0.6,1.3,0.7,1.9
			c0.6,1.5,0.7,3.1,3,2.3c0.8-0.3,1,0.7,1.5,1.2c1.2,1.3,1.8,3.9,4.7,2.4C356.2,336.2,357.2,337,357.1,338.9z"/>
		<path class="st1" d="M328.6,281.1c-0.9-0.4-2.2-0.2-3.4,0c-1,0.1-1.9-0.4-2.4-1.4c-0.4-0.9,0.6-1.4,1.1-1.8
			c3.3-2.4,6.6-4.6,10.8-5.2c0.6-0.1,1-0.2,1.4,0.3c0.4,0.6-0.2,0.8-0.6,1.2c-1.6,1.8-2.1,4.2-4.1,5.7
			C330.7,280.6,330,281.3,328.6,281.1z"/>
		<path class="st1" d="M318.5,212.8c-0.7,0.6-1.2,0.9-1.9,1.1c-0.9,0.2-2.9-0.3-1.8,1.9c0.1,0.3-0.4,0.7-0.8,0.8
			c-0.6,0.1-0.9-0.3-0.8-0.6c0.2-1.6-0.9-2.4-1.9-3.3c-1.4-1.3-0.8-2.9-0.5-4.2c0.4-1.5,1.7-2.2,3.1-2.4c1.6-0.2,4,3,3.3,4.7
			C316.5,212.3,317.4,212.5,318.5,212.8z"/>
		<path class="st1" d="M319.7,229.8c-0.1,2.9-2.1,4.6-5.1,4.1c-0.4-0.1-0.8-0.1-1.2-0.1c-1.1,0-2.1-0.1-1.3-1.7
			c0.1-0.2,0.1-0.6,0.1-0.8c-0.2-3.6,2.1-5.3,5.6-4.1C319.3,227.6,319.6,228.6,319.7,229.8z"/>
		<path class="st1" d="M341.5,271.4c0.6-3.1-1.7-5.7-1.9-8.7c-0.1-1.6-0.6-3.1-0.8-4.7c-0.1-0.6-0.6-1.2,0.2-1.4
			c0.6-0.1,1.2,0.2,1.4,0.9c0.5,1.6,1.1,3,1.4,4.6c0.6,2.4,0.6,4.8,2.1,6.9c0.3,0.4,0.2,1.1,0.1,1.7c-0.2,1.8,0,3.5,0.3,5.2
			c0.1,0.6-0.2,1.6-1,1.7c-0.8,0.2-0.8-0.6-1-1.3C341.8,274.7,341.2,273.2,341.5,271.4z"/>
		<path class="st1" d="M300.9,287.9c0.2,0,0.8,0.1,1.6,0.2c1.1,0.2,2.9,0.1,1.4,2.1c-0.1,0.1,0,0.5,0.1,0.6c0.6,0.6,0.8,1.3,0,1.9
			c-0.9,0.6-1.7,0.4-2.5-0.1c-0.6-0.4-1.3-0.8-1.9-1.2c-0.9-0.6-2.2-0.9-1.8-2.4C297.9,287.6,299.3,287.9,300.9,287.9z"/>
		<path class="st1" d="M315.8,589.5c-0.4-0.4-0.8,0-1.2,0c-1.1,0.1-2.7-0.4-2.7-1.1c-0.1-1.3-0.6-2.7,0-4.1c0.2-0.4,0.6-0.6,1-0.6
			c1.9,0,4.4,2.5,4.5,4.4C317.1,588.8,317.3,590,315.8,589.5z"/>
		<path class="st1" d="M414.1,480.9c1.2-0.4,2.2,0.5,3.1,1.1c1.2,0.9,0.8,3-0.6,3.3c-1.6,0.4-3-0.1-4.3-0.9
			c-0.7-0.6-1.2-1.5-0.9-2.4C411.8,480.9,412.9,480.8,414.1,480.9z"/>
		<path class="st2" d="M271.3,505c2.6-1.1,3.9-3,3.8-6.1c0.6,0.6-0.1,2.2,1.6,2c0.6-0.1,0.2,0.6,0.1,0.9c-0.8,2.7-2.9,3.6-5.4,3.6
			c-0.1-0.1-0.2-0.2-0.1-0.3C271.2,505,271.2,505,271.3,505z"/>
		<path class="st3" d="M279.4,495.4c-1.1-0.4-2-0.6-3.1,0.6c0.4-2.3-0.8-3.1-2.8-3.4C276.8,491.8,277.8,492.4,279.4,495.4z"/>
		<path class="st2" d="M302.4,283.8c-0.4,0.7-0.4,1.5,0.1,1.8c0.6,0.4,1.2,0.4,0.6,1.2c-0.4,0.6-3.1,0.6-3.5,0
			c-0.6-0.7,0.2-1.1,0.6-1.6C300.9,284.6,301.3,283.9,302.4,283.8z"/>
		<path class="st3" d="M150,459.6c1.5,1.4,1.1,3.4,2.6,4.7c0.4,0.3,0.1,0.6-0.5,0.8c-0.6,0.3-0.6,0.2-0.9-0.2
			C149.9,463.4,149.7,461.7,150,459.6z"/>
		<path class="st4" d="M274.4,178.6c1.6,0.7,2.3,3.6,1.5,4.6c-0.4,0.4-0.6,0.2-0.9,0c-0.6-0.4-0.9-0.9-0.6-1.6
			C274.7,180.6,274.9,179.7,274.4,178.6z"/>
		<path class="st3" d="M359.9,343.7c-0.6,0-0.7-0.5-0.7-0.9c0-1.3,0.8-1.7,1.8-1.8c0.6-0.1,1,0.3,0.9,0.9
			C361.7,342.9,360.9,343.6,359.9,343.7z"/>
		<path class="st3" d="M308.8,198c-0.1,0.6,0.6,1.8-1.1,1.7c-0.7-0.1-1.5-0.6-1.4-1.2c0.1-0.7,0.6-1.6,1.8-1.3
			C308.4,197.1,309.2,197.1,308.8,198z"/>
		<path class="st2" d="M284.6,579.1c-0.2-1.2,0.8-1.3,1.7-1.4c0.6-0.1,1.1,0.6,0.8,0.8c-0.9,0.5-0.4,2.1-1.7,2
			C284.5,580.5,284.2,580,284.6,579.1z"/>
		<path class="st3" d="M276.7,184.2c0.2,1.4,2.6-0.2,2.3,1.8c-0.1,0.6-0.8,1.2-1.6,0.9C276.2,186.4,276.6,185.3,276.7,184.2z"/>
		<path class="st2" d="M354.9,349.1c-1.3,0.1-2.1,0.7-2.9,1.5c-0.4,0.4-0.8,0.2-1.1-0.1c-0.4-0.6,0.1-0.8,0.5-0.8
			C352.6,349.4,353.2,347,354.9,349.1z"/>
		<path class="st2" d="M347.5,323.5c-0.4,0.7,0.3,2-1.1,2.1c-0.6,0.1-0.8-0.6-0.6-1.1c0.4-0.7-0.1-2,1.3-1.9
			C347.8,322.5,347.6,323.1,347.5,323.5z"/>
		<path class="st3" d="M172.5,477.4c0.9,1.6,2.3,2.2,2.6,4.1C173.5,480.7,172.2,480,172.5,477.4z"/>
		<path class="st2" d="M351.2,324.6c0.8,0.1,1.1,0.7,1.2,1.4c0.1,0.6-0.6,0.6-1.1,0.6c-0.8,0-1.1-0.6-1.2-1.1
			C350,324.8,350.5,324.6,351.2,324.6z"/>
		<path class="st5" d="M351.5,364.6c0.7,0.6,1,1.5,1.6,2.3c0.2,0.4-0.3,0.6-0.6,0.5c-0.9-0.4-1.7-1-1.7-2.1
			C350.7,364.8,351,364.5,351.5,364.6z"/>
		<path class="st3" d="M323.4,203.3c0.6-0.2,0.9,0.1,0.9,0.6c-0.2,1.2-1.4,0.8-2.1,1.2c-0.4,0.2-0.8,0.1-0.6-0.6
			C321.8,203.3,322.7,203.4,323.4,203.3z"/>
		<path class="st6" d="M165.2,478.4c-0.3,0-0.6,0-0.8,0c-0.3-0.1-0.6-0.2-0.8-0.4c-0.3-0.9-0.3-1.8,0.4-2.9
			C164.4,476.3,165.3,477.2,165.2,478.4L165.2,478.4z"/>
		<path class="st7" d="M280.8,194.3c-0.6-0.1-0.6-0.6-0.9-1c-0.4-0.6,0.2-0.9,0.6-1c0.6-0.1,0.9,0.4,0.9,0.8
			C281.5,193.6,281.2,194.1,280.8,194.3z"/>
		<path class="st4" d="M339.3,237.7c-0.1,0.6-0.4,0.9-0.9,0.9c-0.6,0.1-0.6-0.3-0.6-0.8c0-0.5,0.2-0.8,0.7-0.8
			C338.9,237.1,339.3,237.2,339.3,237.7z"/>
		<path class="st8" d="M315.8,589.5c0.9,0.1,1.1-0.8,1.7-1.2c0.4,1.4,0.3,2.4-1.6,2.1C315.4,590.2,315.8,589.7,315.8,589.5z"/>
		<path class="st9" d="M157.8,478.2c-0.6-0.5-1.4-0.6-1.1-1.6c0.1-0.2,0.6-0.4,0.6-0.3C158.4,476.7,157.5,477.6,157.8,478.2z"/>
		<path class="st10" d="M315.3,309.4c-0.4,0.1-0.8,0.3-1.2,0.4c0.4-1.2-1.2-1.8-1.2-3.1C313.8,307.6,314.6,308.5,315.3,309.4z"/>
		<path class="st11" d="M306.1,284.3c0.6,0.9,0.2,1.5-0.6,1.8c-0.1,0.1-0.4,0-0.4-0.1C304.8,285.2,306.1,285.1,306.1,284.3z"/>
		<path class="st12" d="M252.8,561.6c-0.6-0.2-1.1-0.7-0.6-1.2c0.6-0.8,1.1,0.2,2.2-0.1C253.4,561.1,253,561.4,252.8,561.6
			L252.8,561.6z"/>
		<path class="st11" d="M277.6,189.1c0.9,0.6,1.4,0.9,1.8,1.9C278.2,190.8,277.7,190.4,277.6,189.1z"/>
		<path class="st13" d="M298.6,258.5c0.6,0.4,1.3,0.8,2.3,1.4c-1.7,0.6-1.9-0.6-2.6-0.9C298.5,258.8,298.6,258.6,298.6,258.5z"/>
		<path class="st14" d="M271.3,505c0,0.1,0,0.3,0,0.4c-0.8,0.7-1.8,1.2-3.4,0.6C269.3,505.7,270.3,505.5,271.3,505z"/>
		<path class="st15" d="M329.8,523.5c-1.2-0.6-1.8-0.9-1.7-1.9C329,521.8,329.3,522.3,329.8,523.5z"/>
		<path class="st2" d="M431.5,454.4c0.4-0.1,0.6-0.2,0.6,0.2c0.1,0.5-0.2,0.8-0.6,0.9c-0.5,0.1-0.6-0.4-0.6-0.6
			C430.8,454.4,431.3,454.5,431.5,454.4z"/>
		<path class="st16" d="M405,443.7c-0.1-0.8-0.1-1.6,0.7-2.1C405.9,442.6,405.3,443.2,405,443.7z"/>
		<path class="st17" d="M324.2,211.5c-0.1,0.3-0.2,0.6-0.6,0.6c-0.3,0-0.6-0.1-0.6-0.5c-0.1-0.5,0.2-0.6,0.6-0.6
			C324,211.1,324.1,211.3,324.2,211.5z"/>
		<path class="st6" d="M147.4,456.1c0.7,0.4,0.9,0.9,1.4,1.8C147.3,457.7,147.6,456.6,147.4,456.1z"/>
		<path class="st12" d="M358.1,367.3c-0.2,0.1-0.4,0.3-0.6,0.4c-0.4,0.1-0.5-0.3-0.4-0.6c0.1-0.4,0.3-0.5,0.6-0.5
			C358,366.7,358.2,366.9,358.1,367.3z"/>
		<path class="st18" d="M304.2,278.5c0.8,0.3,0.7,0.8,0.6,1.4C304.1,279.7,304.1,279.2,304.2,278.5z"/>
		<path class="st19" d="M310.3,303.9c-0.3-0.3-0.6-0.6-0.8-0.8c0.4-0.1,0.4-0.7,0.7-0.5C310.7,302.9,310.6,303.5,310.3,303.9z"/>
		<path class="st20" d="M233.4,527.2c-0.5-0.2-0.8-0.5-1.1-1c0.6-0.2,1.1,0.2,1.5,0.6C233.7,526.9,233.5,527,233.4,527.2z"/>
		<path class="st21" d="M254.7,559.9c-0.1-0.1-0.2-0.2-0.4-0.3c0.2-0.2,0.3-0.5,0.6-0.6c0.3-0.2,0.4,0,0.4,0.2
			C255.3,559.6,255.1,559.9,254.7,559.9z"/>
		<path class="st11" d="M345.9,372.6c-0.2,0.1-0.4,0.1-0.6,0.1c-0.2-0.1-0.6-0.3-0.4-0.6c0.1-0.1,0.4-0.2,0.6-0.2
			C345.9,371.9,346,372.2,345.9,372.6z"/>
		<path class="st5" d="M252.8,561.6c0.6,0.5,0.5,1.1,0.4,1.8C252,562.9,252.8,562.3,252.8,561.6L252.8,561.6z"/>
		<path class="st22" d="M169.1,488.1c0.1,0,0.3,0,0.4,0c-0.1,0.4,0.2,0.8-0.4,0.9c-0.2,0.1-0.4-0.2-0.6-0.2
			C168.7,488.6,168.9,488.3,169.1,488.1z"/>
		<path class="st12" d="M363.9,346.8c-0.1,0.1-0.3,0.2-0.5,0.3c-0.2,0.1-0.4-0.1-0.4-0.4c0.1-0.1,0.3-0.3,0.4-0.3
			C363.7,346.3,363.9,346.5,363.9,346.8z"/>
		<path class="st19" d="M163.6,478.1c0.4,0,0.6,0.1,0.8,0.4c-0.1,0.2-0.2,0.6-0.3,0.6C163.6,478.9,163.9,478.3,163.6,478.1z"/>
	</g>
</g>
</svg>
