<?xml version="1.0" encoding="utf-8"?>
<!-- Generator: Adobe Illustrator 21.0.2, SVG Export Plug-In . SVG Version: 6.00 Build 0)  -->
<svg version="1.1" id="Layer_1" xmlns="http://www.w3.org/2000/svg" xmlns:xlink="http://www.w3.org/1999/xlink" x="0px" y="0px"
	 viewBox="0 0 595.3 841.9" style="enable-background:new 0 0 595.3 841.9;" xml:space="preserve">
<style type="text/css">
	.st0{fill:#FDFDFD;}
	.st1{fill:#DBD9DA;}
	.st2{fill:#DCDADB;}
	.st3{fill:#DDDBDC;}
	.st4{fill:#DCDBDC;}
	.st5{fill:#DDDCDD;}
	.st6{fill:#DBDADB;}
	.st7{fill:#DFDEDF;}
	.st8{fill:#EEEDEE;}
	.st9{fill:#DEDDDE;}
	.st10{fill:#ECEBEC;}
	.st11{fill:#DFDDDE;}
	.st12{fill:#E0DFE0;}
	.st13{fill:#E1E0E0;}
	.st14{fill:#E9E7E8;}
	.st15{fill:#E0DEDF;}
	.st16{fill:#E1E0E1;}
	.st17{fill:#DEDCDD;}
	.st18{fill:#E6E5E5;}
	.st19{fill:#F2F1F1;}
	.st20{fill:#F1F0F1;}
	.st21{fill:#EDECED;}
	.st22{fill:#E9E8E9;}
</style>
<g>
	<g>
		<path class="st0" d="M596,424.1c0,139.4,0,278.8,0.1,418.2c0,2.8-0.6,3.4-3.4,3.4c-196.2-0.1-392.4-0.1-588.6,0
			c-2.8,0-3.4-0.6-3.4-3.4c0.1-278.8,0.1-557.6,0-836.4c0-2.8,0.6-3.4,3.4-3.4c196.2,0.1,392.4,0.1,588.6,0c2.8,0,3.4,0.6,3.4,3.4
			C596,145.3,596,284.7,596,424.1z"/>
		<path class="st1" d="M193.5,641c2.5,4.1,6.4,5.8,11,6.1c3.2,0.2,5,3.1,6,4.8c1.5,2.5,3.8,1.7,4.3,1.4c2-1.1,2.4,0.1,2.9,1.3
			c0.8,2,3.7,3,2.5,5.9c-0.1,0.2,1.8,1.7,3.5,1.8c0-2.6-2.8-4.2-2.1-7.7c2.1,3.3,5.8,4,7.3,7.3c0.6,1.3,1,3.7,3.5,1.6
			c0.7-0.6,1.5,0.5,2.2,1c3.8,2.5,6.9,6.1,11.2,7.8c1.2,0.5,2.3,1.5,3.8,1.1c0.5-0.1,1.2,0.1,1.4,0.9c1,3.5,2.2,4,5.4,2.4
			c0.3-0.2,0.7-0.2,1.4-0.3c0,1.2-2.2,2.1-0.5,3.1c3.9,2.3,5.5,6.7,9,9.5c3.2,2.6,5.5,6.3,10.3,6.3c1.8,0,2.1,1.6,1.3,3.1
			c5.3,3.3,12.2,3.2,17,7.8c0.7,0.7,1.9,1.6,1.6,2.4c-1.6,4.4,2.7,5.7,4.3,8.4c1.6,2.6,2.2,6.7-0.4,8.3c-2.1,1.3-3.6,2.8-5.3,4.4
			c-0.6,0.5-1.9,1.9-1.5-0.8c0.1-1.2-1.9-2.6-2.9-3.9c-0.9,1.6-2.3-1.3-3.4,0.5c-1.1,1.9,1,2.5,1.2,4.3c-1.5-1.3-2.7-1-4.1-0.3
			c-1.2,0.6-2.8,0.2-3.8-0.9c-0.9-1.1,1.3-1.2,1-2.6c-1.9,0.9-2.7-1-4-1.6c-2.4-1-4.4-3.8-7.6-2.3c-0.8,0.4-1.7-0.8-2.3-1.6
			c-2.1-3-3.2-2.9-5.9-0.6c-1.3,1.1-1.8,2.4-2.7,3.6c-3.2-0.6-0.4-4.5-3.2-5.1c0.8-1.4,2.2-0.6,3.2-1.1c-4-4.5-4-4.5-7.9-0.5
			c-0.6-1.3-1.3-2.5-1.7-3.8c-0.3-1-1-1.1-1.7-0.8c-3.1,1.6-4.7-0.7-6.8-2.3c-1.8-1.4-3.4-4.6-7.1-2.2c5.7-2.6,1.2-6.5,1.8-9.7
			c0.1-0.7-0.4-1.7-1.2-1.6c-2.2,0.1-3.3-1.1-4.4-2.7c-0.9-1.3-2.2-1.4-2.7,0.3c-0.5,1.6-2.7,2.4-2.2,4.5c0.2,0.7-0.6,1.1-1.2,1
			c-0.7-0.2-1.6-0.6-1.8-1.1c-0.4-1,0.8-0.4,1.2-0.7c0.8-0.5,0.5-1,0-1.4c-2.2-1.9-4.4-3.8-6.7-5.5c-0.7-0.5-1.9-0.7-2.8-0.6
			c-1,0-2.1,0.7-2.8-0.2c-1.3-1.5,1.7-0.8,0.9-1.2c-1.5-0.8-1.7-3.3-3.8-3.1c-1.2,0.1-1.7-0.7-1.4-1.6c0.9-2.6-1.7-2.4-2.7-3.3
			c-1-1-1.4,0.9-2,1.4c-1.2,1.2-2.1,0.9-2.1-0.5c0-2.4-1.4-1.1-2.2-1.5c-4.4-2.2-10.9-0.9-13-7.4c-0.3-1-1-2.4-3.3-1.5
			c-2.3,0.9-4.9-1-7.2-2.1c-2.2-1-5.1-0.8-5.4-4.6c-0.2-1.9-3-1.8-4.6-2.4c-3.6-1.4-5.2-4-5.9-7.4c-0.3-1.6-0.5-2.9-2.5-1.4
			c-0.9,0.7-1.6,0.3-2.2-0.5c-1.4-1.7-2.6-3-5.2-3.6c-1.5-0.3-1.6-1-1.5,0.7c0.1,1-0.3,1.4-1.1,1.6c-0.7,0.1-1.4-0.3-1.3-1
			c1.2-4.4-3.2-5.5-4.9-8.1c-1.6-2.5-3.8-4.3-3.5-7.7c0.2-2.4-2.7-4.5-5.1-4.1c-1.5,0.2-1.1-1.6-2.1-1.5c-0.9,0.1-0.6,1.2-1.2,1.7
			c-1.7-3.3-4-6.2-4.6-10.1c-0.1-0.9-1.8-2-2.8-2.1c-6.7-0.9-11.3-5.1-15.4-9.9c-0.9-1-2.3-0.8-3.2-2.2c1.2-0.6,3.3-0.3,3.1-2.2
			c-0.1-1.6-1.8-0.9-2.7-1.5c-2.3-1.5-3.2-4-4.4-6.2c-1.1-2.1-2.4-3.5-4.4-4.9c-3.1-2.1-6.7-4.3-7.1-8.7c-0.2-2.1-2.4-2.7-3.8-4.7
			c3.1,0.4,4.5-0.6,3.8-3.5c-0.7-2.8-2.9-3.9-5.9-2.9c-0.2,0.4-0.5,0.4-0.7,0c-0.1-1.1-0.1-2.2-0.2-3.2c-1.1-0.3-1.2,0.3-1.4,0.9
			c-0.4,1-1.6,2.1-2.1,1.3c-0.7-1.1-2-2-2-3.3c-0.1-1.2,1.3-1.6,2.2-1.4c2.5,0.7,1.6-0.7,1.4-1.9c-0.3-1.8,1.8-5-1.2-5.2
			c-2.2-0.1-1.9-1.6-2.8-2.3c-0.5-0.3-0.4-1.3-0.6-2l0,0c1.7-0.2,3.3,0.2,4.3,1.7c2.2,3.6,6,5.8,8.4,9.3c1.9,2.8,5.6,3.2,8.5,4.6
			c0.7,0.3,1.6,0.2,1.8-1.2c0.3-3.1,2.7-3.1,4.5-2c3.1,1.9,6.6,2.7,9.9,4.1c2.7,1.1,5.2,3,6.5,5.3c2.1,4,5.9,5.7,9.2,7.3
			c4.7,2.2,7.1,6.2,10.2,9.6c1,1.2,8.8,6.3,10.4,7c1.9,0.8,3.5,2.3,5.3,3.3c3.8,2,7.9,2.5,12.1,3.1c2.8,0.4,5.4,1,4.4,5.1
			c-0.6,2.7,4.5,7.6,7.7,7.5c3.2-0.1,4.5,0.6,3.5,4.3c-1.3,4.7,3,10.1,8.4,10.8c3.1,0.4,5.1,2.6,7.3,4.4c0.9,0.7-0.1,1.2-0.9,1.3
			c-0.3-0.2-0.7-0.3-0.9,0.1C193.2,640.5,193.3,640.8,193.5,641z"/>
		<path class="st1" d="M306.6,165.5c-2.1,1-2.3,2.2-1.3,4.2c1.4,3.1,0.5,6.9,2.7,9.8c0.3,0.5,0.3,1.2,1.1,1.3
			c0.9,0.1,2.1-2.2,2.6-0.2c0.7,2.6,2.5,5.1,1.4,7.8c-0.5,1.3-0.7,1.6,0.6,2.5c2.3,1.7,2.2,1.8,0.7,4.3c-0.7,1.2,0.8,2.1,0.9,3.4
			c0.2,3.3,2,6,3.7,8.7c0.3,0.5,1.4,0.5,0.8,1.5c-0.4,0.6-1.2,0.7-1.7,0.4c-3.8-1.8-5.6,0.5-7.5,3.2c-1.8,2.6-3.9,4-7.1,1.8
			c-1.8-1.3-4.1-0.3-6.1-0.2c-1.5,0-4.7-0.6-4.4,2.9c-2.6-0.3-3.8,1.3-5.2,3.3c-0.9,1.3-4.5-1.3-4.3-3.3c0.1-1.4,0.3-2.8-0.9-3.8
			c-3.9-3.2-4.9-8.2-7.7-12c-0.8-1.1-1.2-2.1-0.7-3.4c1.7-4.7,1.4-9.2-0.1-14c-1.4-4.3-2.7-8.6-3.3-13.2c-0.4-3.1-2.8-5.7-3.7-8.8
			c-1.7-5.6-1-10.9,1.2-16.1c1-2.4,3.1-2.4,4.6-0.1c2,2.9,3.2,6.7,5.8,8.8c4.4,3.6,5.2,8.2,5.6,13c0.3,4.3,2.1,8.2,2.4,12.5
			c0.1,1.5,1.1,2.7,2.6,2.7c2.6-0.1,5.2,1.1,7.7-1.2c3.7-3.3,2.1-7.7,2.6-11.6c0.7-4.7,0.2-4.9,4.9-4.3
			C305.1,165.6,305.8,165.5,306.6,165.5z"/>
		<path class="st1" d="M338.5,255.6c-0.1,0.6-0.6,1.5-0.4,1.7c3.6,2.8,7,6.2,10.8,8.2c3.5,1.8,5.2,6.2,9.7,6.6c0.9,0.1,2,3.7,0.8,6
			c-0.4,0.6-1,1.1-0.5,2.4c0.6-0.7,1-1.4,1.6-1.9c0.8-0.8,1.6-0.7,2.1,0.3c0.5,0.9,0.7,2.5-0.4,2.5c-3.3,0.2-2.2,6.7-6.1,4.6
			c-3-1.6-6-1.9-9.1-2.7c-1.3-0.3-2.3,0.4-2.4,1.1c-0.2,2.5-2.7,2.9-3.9,4.5c-1.5,2.1-4.1,0.5-5.1-0.5c-1.4-1.4-6.4-2.2-2.2-6
			c0.9-0.8-0.1-2.2-0.9-2.9c-1.2-0.9-1.2-2.3-1.8-3.4c-1.9-3.5-1.6-7.1-1.1-10.6c0.6-4.4-2.5-7.3-4.2-10.6c-0.9-1.7-2.5-0.2-3,0.5
			c-2.5,3.5-5.5,2.3-7.6,0.3c-1.9-1.8-4.5-4.4-1.9-7.9c1.1-1.6,1.3-3.5,0.9-5.6c-0.8-4.7,1.8-6.8,6.2-5.1c2.3,0.9,5.2,1.4,5.6,4.8
			c0.1,1.1,1.2,1.9,2.2,2.4c0.7,0.3,1.2,0.8,1.5,1.5c0.5,0.5,1.4,1.3,1.3,1.6c-1.8,5.2,2.8,6.3,5.4,8.8
			C336.9,255.6,337.5,254.7,338.5,255.6z"/>
		<path class="st1" d="M308.2,603c2.1,0.9,3.7,0.4,5.2-2.1c1-1.6,3.3-1,4.7,0.1c2.1,1.7,5.9,2.6,3.4,6.8c-0.8,1.4-0.8,3.3,0.1,5
			c0.3,0.5,0.7,1.4,0.5,1.7c-4.1,5.6,2.5,4.1,4,5.1c1.8,1.3,4,1.3,3.2,4.6c-0.4,1.7,1.5,2.1,2.9,2.7c1.7,0.7,3.7,1.7,0.8,3.7
			c-1.2,0.8-2.2,2-1.4,3.8c0.7,1.6-0.2,2.8-1.6,3.2c-1.5,0.5-3.5,1.6-4.7-0.4c-2.8-4.5-6.9-6.6-12-6.6c-3,0-4.6-1.8-5.7-3.9
			c-1-1.8-3.6-2.8-2.8-5.5c0.1-0.2-0.6-0.8-1-1c-0.9-0.4-2.6-0.5-1.8-2c0.5-0.9,1.7-0.3,2.6,0.2c2.5,1.4,4-0.9,5.7-1.9
			c0.6-0.3,0.9-1.2,1.2-1.8c0.9-1.6,3.5-3.3,2.1-5c-1.6-1.9-4.5-2.7-7.2-3c-1.1-0.1-2.9,1.9-3.2-0.4c-0.2-1.8,0.9-3.6,3.4-3.3
			C307.1,603.1,307.4,603,308.2,603z"/>
		<path class="st1" d="M397.4,362.2c-1.1,0.3-2.3,0.5-3.6,0.8c1.5-2.8,3.2-3.5,5.3-2.2c2.4,1.5,4.5,1.8,7.5,0.9
			c4.3-1.3,5.5,3.1,7.3,5.8c1.6,2.5,2.9,5.1,6.1,5.6c1,0.2,0.9,0.8,0.7,1.6c-2,6.7-7.4,10.3-14.4,8.9c-2.2-0.5-3.6-3.1-6.5-3.2
			c-1,0-2.4,0.7-3.1-0.1c-1-2.6,4.2-0.1,2.2-3.7c-2.2-4-3.6-4.3-6.8-1c-0.6,0.6-0.8,2.3-2.1,1.3c-0.6-0.5-1.4-1.8-0.9-2.8
			c0.7-1.5,1-3.6,2.6-4.4C394.6,368.1,394.8,364.3,397.4,362.2z"/>
		<path class="st1" d="M472.8,455.4c-2.1,0.6-4.8,0-5.1,2c-0.2,1.7,2.2,2.8,3.9,3.5c2.5,1,4.4,2.6,5.6,5.1c0.9,1.9,0.3,3.5-1,4.7
			c-1.1,1-2.6,2.5-4.2,1.3c-4.1-3-9.2-2.9-13.6-5c-1.9-0.9-3.8-1.6-5.7-2.6c-1.6-0.9-2.6-2.1-1-3.8c0.7-0.8,1.4-1.7,0.7-2.6
			c-2.4-2.8-0.9-5.9-0.6-8.7c0.4-3.2,2.8-4.7,6.1-4.7c4.4-0.1,6.6,1.1,7,4.4c0.3,3.3,1,5.4,5,4.1C471.8,452.3,472,454.2,472.8,455.4
			z"/>
		<path class="st1" d="M364.5,669.7c2.5-2,2.8-3.7,0.7-5.6c-1.1-1-1.5-2.5-1.4-4.1c0.1-1.7-0.3-3.1-1.6-4.3
			c-0.6-0.6-1.3-1.3-0.6-2.2c0.6-0.8,1.8-0.9,2.4-0.4c2.2,2,4.1,1.7,6.4,0c1.1-0.8,2.4-1.4,2.7,1.4c0.5,4.2,4.8,5.8,9.9,3.9
			c3-1.1,2.7-0.6,2.3,2.1c-0.4,3.2-1.9,6.4-0.7,9.7c0.2,0.6,0.1,1.5-0.5,1.6c-3.2,0.6-5.8,3.2-9.3,2.3c-0.7-0.2-1.5-0.5-1.9-1
			C369.8,670,369.8,670,364.5,669.7z"/>
		<path class="st1" d="M391.6,272.6c-4.6,1.8-9.4-0.2-14.2-2.2c-2.7-1.1-4.5-3.4-7-4.8c-1-0.5-1.1-2.9,0.2-3c2.1-0.3,3.8-2,5.9-1.8
			c4.3,0.3,6.8-2.3,9-5.4c0.7-1.1,1.2-2.2,2.8-2c1.8,0.2,2,1.5,2.4,2.9c0.4,1.5,1,3,1.4,4.6c0.5,2.2,1.4,3.8,3.8,4.5
			c0.8,0.2,1.4,1,2.1,1.5c1.3,0.8,2,1.8,1.6,3.4c-0.4,1.6-1.7,2.1-3,2.4C395.2,272.8,393.8,272.6,391.6,272.6z"/>
		<path class="st1" d="M478.8,498.5c-0.3,1.8-0.6,3.3-0.5,4.9c0.3,3.2,1.3,5.4,5,5.7c2.5,0.2,3.8,2.9,6.4,3.4c1,0.2,0.3,1.4-0.3,1.7
			c-2,0.9-1.9,2.6-2,4.4c-0.2,3.2-1.8,4.4-4.8,3.4c-7-2.3-11.4-7.5-13.5-14.2c-1.5-4.6,4.1-11,8.3-10.4
			C478.8,497.6,478.8,497.6,478.8,498.5z"/>
		<path class="st1" d="M388.5,204.4c-0.1,1.9-0.5,4,1.9,5.2c0.6,0.3,1.1,2.2,0.8,3.1c-2,5.3,1.8,9.5,2.7,14.2
			c1,5.1,3.5,9.8,2.6,15.3c-0.5,3.1-2.6,4.8-4.8,3.5c-0.6-0.4-1.5-1.2-1.4-1.6c1.3-4.4-2.5-8.2-1.4-12.6c0.2-0.8-0.6-1.8-1-2.7
			c-1.9-3.9-3.7-7.6-2.6-12.2c0.9-3.6,2.1-7.2,1.6-11.1C386.9,204.7,387.5,204.3,388.5,204.4z"/>
		<path class="st1" d="M412.3,307.8c0,1.2-1,1.7-2.8,0.7c-0.3-0.2-0.7-0.3-1-0.5c-4.2-2.6-8.3-4-13.1-0.7c-2.7,1.8-6.9-1.2-7.7-4.7
			c-0.5-2.4-3-4.1-1.6-7.1c0.9-1.8,3.1-3.2,2.3-6c-0.2-0.6,2.2-1.3,3.2,0.2c0.6,1,1,2.3,1.3,3.4c0.9,2.6,1.3,5.5,5.3,4.1
			c1.4-0.5,1.8,1.3,2.6,2.2c2.2,2.3,3.3,6.8,8.3,4.3C410.8,303,412.7,304.4,412.3,307.8z"/>
		<path class="st1" d="M361.9,205.6c-1.7-0.6-3.9-0.3-6.1,0c-1.8,0.2-3.5-0.7-4.2-2.4c-0.6-1.6,1-2.4,2-3.2c5.8-4.2,11.7-8.1,19-9.1
			c0.9-0.1,1.8-0.3,2.4,0.5c0.7,1-0.4,1.5-0.9,2.1c-2.8,3.1-3.7,7.5-7.2,10.1C365.6,204.7,364.3,205.8,361.9,205.6z"/>
		<path class="st1" d="M344.1,84.8c-1.3,0.9-2.2,1.7-3.5,1.9c-1.7,0.4-5.1-0.5-3.3,3.5c0.2,0.5-0.7,1.3-1.5,1.4
			c-0.9,0.2-1.6-0.5-1.5-1.2c0.3-2.8-1.7-4.2-3.4-5.8c-2.5-2.3-1.4-5.1-0.8-7.5c0.7-2.6,2.9-3.9,5.5-4.3c2.7-0.4,7,5.4,5.9,8.3
			C340.5,83.7,342,84.1,344.1,84.8z"/>
		<path class="st1" d="M346.3,114.7c-0.2,5.2-3.8,8.1-9,7.1c-0.7-0.1-1.5-0.2-2.2-0.2c-2,0-3.7-0.1-2.3-2.9c0.2-0.4,0.2-0.9,0.2-1.4
			c-0.4-6.4,3.8-9.4,10-7.4C345.5,110.8,346,112.6,346.3,114.7z"/>
		<path class="st1" d="M384.7,188.4c1-5.6-3-10.1-3.4-15.4c-0.2-2.8-1-5.5-1.5-8.3c-0.2-0.9-1-2.1,0.4-2.4c1.1-0.2,2.1,0.4,2.5,1.7
			c0.8,2.7,1.9,5.4,2.5,8.1c0.9,4.2,1.2,8.5,3.7,12.2c0.5,0.7,0.3,1.9,0.2,2.9c-0.3,3.1,0,6.2,0.5,9.2c0.2,1.2-0.4,2.7-1.8,2.9
			c-1.5,0.3-1.4-1.2-1.8-2.3C385.2,194.3,384.2,191.5,384.7,188.4z"/>
		<path class="st1" d="M312.9,217.6c0.3,0,1.5,0.2,2.7,0.4c1.9,0.4,5.2,0.1,2.4,3.7c-0.2,0.2,0,0.8,0.1,1c0.9,1.2,1.5,2.3,0,3.5
			c-1.6,1.2-3,0.7-4.4-0.2c-1.2-0.7-2.3-1.4-3.5-2.1c-1.6-1-3.9-1.6-3.2-4.2C307.7,217.1,310,217.6,312.9,217.6z"/>
		<path class="st1" d="M339.3,751.1c-0.7-0.7-1.4,0-2.1,0c-2,0.1-4.7-0.7-4.8-2c-0.2-2.3-0.9-4.8,0-7.1c0.3-0.6,0.9-1.1,1.8-1.1
			c3.4,0,7.8,4.4,8,7.9C341.6,750,341.8,752.2,339.3,751.1z"/>
		<path class="st1" d="M513.2,559.1c2.2-0.6,3.9,0.8,5.6,2c2.1,1.7,1.5,5.3-1.1,5.9c-2.7,0.7-5.4-0.1-7.7-1.6
			c-1.3-0.9-2.1-2.6-1.6-4.3C509.1,559.1,511.1,559,513.2,559.1z"/>
		<path class="st2" d="M260.5,601.6c4.5-2,6.9-5.4,6.7-10.7c1.2,1.2-0.1,3.9,2.8,3.6c1.2-0.1,0.3,1,0.1,1.6
			c-1.5,4.8-5.1,6.3-9.6,6.3c-0.2-0.2-0.3-0.3-0.2-0.5C260.3,601.6,260.4,601.6,260.5,601.6z"/>
		<path class="st3" d="M274.9,584.8c-1.9-0.6-3.6-1.1-5.5,1c0.7-4.1-1.4-5.5-4.9-6C270.3,578.4,272.1,579.3,274.9,584.8z"/>
		<path class="st2" d="M315.7,210.2c-0.7,1.3-0.7,2.6,0.2,3.1c1,0.6,2.2,0.7,1.2,2.2c-0.7,1-5.5,1-6.2,0c-1-1.3,0.3-2,1-2.7
			C312.8,211.7,313.6,210.4,315.7,210.2z"/>
		<path class="st3" d="M45.9,521.5c2.6,2.4,2,6.1,4.5,8.3c0.6,0.5,0.1,1.1-0.8,1.5c-0.9,0.5-1.1,0.3-1.7-0.4
			C45.6,528.2,45.4,525.1,45.9,521.5z"/>
		<path class="st4" d="M266,24.1c2.7,1.3,4.1,6.3,2.6,8.1c-0.6,0.7-1.1,0.3-1.6,0c-1.2-0.6-1.6-1.7-1.2-2.8
			C266.6,27.7,266.8,26.1,266,24.1z"/>
		<path class="st3" d="M417.3,316.4c-1.2,0-1.3-0.8-1.3-1.7c0-2.3,1.5-3,3.3-3.2c0.9-0.1,1.8,0.5,1.6,1.6
			C420.5,314.9,419.2,316,417.3,316.4z"/>
		<path class="st3" d="M326.9,58.4c-0.2,1.2,0.9,3.1-2,2.9c-1.3-0.1-2.6-1-2.4-2.2c0.2-1.3,1.2-2.7,3.1-2.3
			C326.3,56.9,327.6,56.8,326.9,58.4z"/>
		<path class="st2" d="M284,732.9c-0.4-2.2,1.4-2.3,2.9-2.5c0.9-0.1,2,1.2,1.5,1.4c-1.7,0.8-0.7,3.7-3,3.6
			C283.9,735.3,283.3,734.4,284,732.9z"/>
		<path class="st3" d="M270.1,34c0.4,2.5,4.6-0.3,4.1,3.1c-0.2,1.1-1.4,2.2-2.8,1.7C269.2,37.9,270,35.9,270.1,34z"/>
		<path class="st2" d="M408.6,325.8c-2.3,0.2-3.8,1.3-5,2.6c-0.7,0.7-1.5,0.3-1.9-0.2c-0.7-0.9,0.2-1.4,0.8-1.5
			C404.4,326.3,405.4,322.1,408.6,325.8z"/>
		<path class="st2" d="M395.4,280.5c-0.6,1.3,0.5,3.6-1.9,3.8c-0.9,0.1-1.4-1-0.9-2c0.6-1.3-0.1-3.6,2.3-3.5
			C396,278.8,395.5,279.8,395.4,280.5z"/>
		<path class="st3" d="M85.8,552.9c1.7,2.8,4.1,3.9,4.6,7.2C87.5,558.6,85.1,557.5,85.8,552.9z"/>
		<path class="st2" d="M401.8,282.4c1.5,0.1,2,1.3,2.1,2.5c0.1,1.2-1,1.1-1.9,1.2c-1.4,0-2-0.9-2.2-2
			C399.7,282.8,400.7,282.5,401.8,282.4z"/>
		<path class="st5" d="M402.5,353.2c1.3,0.9,1.8,2.6,2.7,4.1c0.4,0.6-0.5,1.1-1.2,0.8c-1.6-0.7-2.9-1.8-2.9-3.8
			C401.1,353.6,401.5,353.1,402.5,353.2z"/>
		<path class="st3" d="M352.8,67.9c1-0.4,1.7,0.1,1.6,0.9c-0.3,2.1-2.4,1.5-3.7,2.1c-0.6,0.3-1.4,0.1-1.2-1.1
			C349.9,67.7,351.5,68.1,352.8,67.9z"/>
		<path class="st6" d="M72.9,554.7c-0.5,0-1,0-1.5,0c-0.5-0.2-1-0.4-1.5-0.7c-0.5-1.7-0.5-3.3,0.6-5.1
			C71.4,550.9,73,552.5,72.9,554.7C72.9,554.7,72.9,554.7,72.9,554.7z"/>
		<path class="st7" d="M277.3,52c-1.1-0.1-1.2-1.1-1.6-1.8c-0.6-1.2,0.3-1.6,1.1-1.8c1-0.2,1.7,0.6,1.7,1.5
			C278.6,50.7,278.2,51.6,277.3,52z"/>
		<path class="st4" d="M380.9,128.7c-0.1,0.9-0.6,1.6-1.6,1.7c-0.9,0.1-1.2-0.5-1.2-1.4c0-0.8,0.4-1.4,1.3-1.4
			C380.1,127.6,380.8,127.8,380.9,128.7z"/>
		<path class="st8" d="M339.3,751.1c1.7,0.2,2-1.5,2.9-2.2c0.6,2.4,0.5,4.2-2.7,3.7C338.6,752.4,339.3,751.6,339.3,751.1z"/>
		<path class="st9" d="M59.6,554.3c-0.9-0.8-2.5-1.1-2-2.8c0.1-0.3,0.9-0.6,1.2-0.5C60.8,551.7,59.2,553.3,59.6,554.3z"/>
		<path class="st10" d="M338.5,255.6c-0.7,0.2-1.5,0.5-2.2,0.7c0.7-2.2-2.2-3.1-2.1-5.6C335.8,252.5,337.2,254,338.5,255.6z"/>
		<path class="st11" d="M322.1,211.2c1,1.6,0.4,2.6-0.9,3.3c-0.2,0.1-0.6,0-0.6-0.2C319.9,212.7,322.1,212.5,322.1,211.2z"/>
		<path class="st12" d="M227.7,702c-1-0.4-1.9-1.3-1.2-2.2c1-1.4,1.9,0.4,3.9-0.2C228.9,700.9,228.3,701.5,227.7,702L227.7,702z"/>
		<path class="st11" d="M271.7,42.6c1.7,1,2.5,1.7,3.1,3.4C272.7,45.7,271.9,45,271.7,42.6z"/>
		<path class="st13" d="M309,165.5c1.2,0.7,2.3,1.4,4,2.4c-2.9,1-3.4-0.9-4.6-1.6C308.6,166,308.8,165.8,309,165.5z"/>
		<path class="st14" d="M260.5,601.6c0,0.2,0,0.5,0,0.7c-1.5,1.3-3.1,2.1-6.1,1.2C257,603,258.8,602.6,260.5,601.6z"/>
		<path class="st15" d="M364,634.5c-2.1-0.9-3.1-1.6-3-3.5C362.6,631.5,363.3,632.4,364,634.5z"/>
		<path class="st2" d="M544.1,512.2c0.6-0.2,1.1-0.3,1.2,0.4c0.1,0.8-0.3,1.5-1.1,1.6c-0.8,0.2-1.1-0.6-1.2-1.1
			C542.8,512.1,543.7,512.4,544.1,512.2z"/>
		<path class="st16" d="M497,493.3c-0.1-1.4-0.2-2.8,1.3-3.7C498.7,491.3,497.8,492.3,497,493.3z"/>
		<path class="st17" d="M354.1,82.5c-0.1,0.5-0.3,1-0.9,1c-0.5,0-1-0.2-1.1-0.8c-0.1-0.8,0.3-1.2,1-1.2
			C353.7,81.6,354,82,354.1,82.5z"/>
		<path class="st6" d="M41.2,515.1c1.3,0.6,1.7,1.7,2.4,3.1C41.1,518,41.8,516.1,41.2,515.1z"/>
		<path class="st12" d="M414.1,358.1c-0.3,0.2-0.6,0.5-1,0.6c-0.7,0.1-0.8-0.5-0.7-1c0.1-0.6,0.5-0.8,1-0.8
			C414,356.9,414.2,357.3,414.1,358.1z"/>
		<path class="st18" d="M318.7,201c1.5,0.5,1.3,1.4,1.1,2.5C318.6,203,318.5,202.1,318.7,201z"/>
		<path class="st19" d="M329.6,245.9c-0.5-0.5-1-1-1.5-1.5c0.6-0.1,0.7-1.3,1.3-0.8C330.3,244.2,330.1,245.1,329.6,245.9z"/>
		<path class="st20" d="M193.5,641c-0.8-0.3-1.4-0.8-1.9-1.8c1.2-0.3,1.9,0.4,2.6,1.1C194,640.5,193.7,640.7,193.5,641z"/>
		<path class="st21" d="M231.1,698.9c-0.2-0.1-0.4-0.3-0.7-0.5c0.3-0.4,0.5-0.8,0.9-1.1c0.4-0.3,0.7,0,0.7,0.4
			C232.1,698.4,231.9,698.8,231.1,698.9z"/>
		<path class="st11" d="M392.6,367.4c-0.3,0.1-0.6,0.2-0.9,0.2c-0.4-0.2-0.9-0.5-0.6-1.1c0.1-0.2,0.6-0.4,0.9-0.4
			C392.5,366.3,392.8,366.7,392.6,367.4z"/>
		<path class="st5" d="M227.7,702c1.1,0.8,0.8,1.9,0.6,3.1C226.5,704.3,227.8,703,227.7,702C227.7,702,227.7,702,227.7,702z"/>
		<path class="st22" d="M79.7,571.8c0.2,0,0.5,0,0.7,0c-0.1,0.6,0.4,1.5-0.6,1.7c-0.3,0.1-0.6-0.3-0.9-0.4
			C79.1,572.7,79.4,572.2,79.7,571.8z"/>
		<path class="st12" d="M424.3,321.8c-0.2,0.1-0.5,0.4-0.8,0.5c-0.4,0.1-0.7-0.2-0.6-0.6c0.1-0.2,0.5-0.5,0.7-0.5
			C424.1,321,424.4,321.2,424.3,321.8z"/>
		<path class="st19" d="M69.9,554c0.6,0,1.2,0.1,1.5,0.7c-0.2,0.4-0.4,1.2-0.5,1.2C69.9,555.6,70.5,554.5,69.9,554z"/>
	</g>
</g>
</svg>
